<svg width="30" height="30" viewBox="0 0 30 30" fill="none" xmlns="http://www.w3.org/2000/svg">
<path d="M23.9732 0H5.89286C2.59888 0 0 2.59888 0 5.89286V23.9732C0 27.2672 2.59888 30 5.89286 30H23.9732C27.2672 30 30 27.2672 30 23.9732V5.89286C30 2.59888 27.2672 0 23.9732 0ZM20.3571 24.375H16.875C14.0283 24.375 12.0536 22.7893 12.0536 19.2857V13.9286H9.64286V10.7143C12.4895 9.97768 13.5234 7.47857 13.6607 5.35714H16.6071V10.1786H20.0893V13.9286H16.6071L16.581 18.6502C16.581 20.1147 17.3176 20.621 18.4975 20.621L20.3571 20.625V24.375Z" fill="#EE3434"/>
</svg>
