<svg width="30" height="30" viewBox="0 0 30 30" fill="none" xmlns="http://www.w3.org/2000/svg">
<path d="M29.8072 6.62404C29.8072 3.10851 27.8675 0.280461 25.4708 0.280461C22.2243 0.0781226 18.9133 0 15.5297 0H14.4748C11.0994 0 7.78259 0.0781228 4.53608 0.281242C2.14516 0.281242 0.20546 3.12492 0.20546 6.64044C0.0589575 9.42084 -0.00315971 12.202 0.000356358 14.9832C-0.00550376 17.7644 0.0609109 20.5481 0.1996 23.3345C0.1996 26.8501 2.1393 29.7015 4.53022 29.7015C7.94081 29.9125 11.4393 30.0062 14.9964 29.9984C18.5593 30.014 22.0481 29.9151 25.4626 29.7015C27.8593 29.7015 29.799 26.8501 29.799 23.3345C29.9397 20.5455 30.0041 17.7644 29.9983 14.9754C30.0116 12.1942 29.9479 9.41042 29.8072 6.62404ZM12.1308 22.647V7.2959L20.628 14.9676L12.1308 22.647Z" fill="#EE3434"/>
</svg>
