<svg width="53" height="58" viewBox="0 0 53 58" fill="none" xmlns="http://www.w3.org/2000/svg">
<path d="M0.244728 18.3909C2.59716 12.2852 6.90585 7.21949 12.4367 4.05685C17.9675 0.894198 24.3782 -0.169687 30.5765 1.04647C36.7748 2.26262 42.3772 5.68356 46.4292 10.7264C50.4811 15.7693 52.7318 22.122 52.7979 28.7022C52.8639 35.2824 50.7412 41.6829 46.7913 46.8132C42.8415 51.9434 37.309 55.486 31.1364 56.8373C24.9639 58.1886 18.5332 57.2651 12.9401 54.2239C7.34706 51.1828 2.93765 46.2123 0.463198 40.1594L1.57213 39.6659C3.93715 45.4511 8.15156 50.2018 13.4973 53.1084C18.843 56.0151 24.9893 56.8978 30.8889 55.6062C36.7884 54.3147 42.0763 50.9288 45.8514 46.0254C49.6266 41.122 51.6554 35.0045 51.5923 28.7153C51.5292 22.4262 49.378 16.3544 45.5053 11.5345C41.6326 6.71472 36.2779 3.44506 30.3537 2.2827C24.4295 1.12033 18.3023 2.13716 13.0161 5.15994C7.72986 8.18272 3.61172 13.0244 1.36333 18.8601L0.244728 18.3909Z" fill="white"/>
</svg>
