<svg width="31" height="30" viewBox="0 0 31 30" fill="none" xmlns="http://www.w3.org/2000/svg">
<path d="M17.0616 29.0839L29.9718 16.5773C30.1674 16.3878 30.3063 16.1825 30.3885 15.9614C30.4693 15.7404 30.5098 15.5035 30.5098 15.2508C30.5098 14.9982 30.4693 14.7613 30.3885 14.5402C30.3063 14.3191 30.1674 14.1139 29.9718 13.9244L17.0616 1.41771C16.703 1.07031 16.255 0.888391 15.7178 0.871968C15.1792 0.856809 14.7143 1.03872 14.3231 1.41771C13.9318 1.76512 13.7278 2.19906 13.7108 2.71954C13.6952 3.24128 13.8829 3.69165 14.2742 4.07064L23.859 13.3559H1.99965C1.44542 13.3559 0.98052 13.5372 0.604949 13.8997C0.230682 14.2636 0.0435477 14.7139 0.0435477 15.2508C0.0435477 15.7877 0.230682 16.2375 0.604949 16.6C0.98052 16.9639 1.44542 17.1458 1.99965 17.1458H23.859L14.2742 26.431C13.9155 26.7784 13.7278 27.2206 13.7108 27.7575C13.6952 28.2944 13.8829 28.7365 14.2742 29.0839C14.6328 29.4629 15.0892 29.6524 15.6434 29.6524C16.1977 29.6524 16.6704 29.4629 17.0616 29.0839V29.0839Z" fill="white"/>
</svg>